<?xml-stylesheet type="text/css" href="swipe.css" ?>
<svg class="swipe--swipe-svg" viewBox="-512 -512 2048 2048" version="1.1" xmlns="http://www.w3.org/2000/svg" preserveAspectRatio="xMidYMid meet">
  <path d="M538.88 162.56L608 37.12A1278.08 1278.08 0 0 0 110.4 160a42.56 42.56 0 0 0 35.2 77.76 1107.2 1107.2 0 0 1 393.28-75.2z m448 482.24a482.88 482.88 0 0 0-215.36-271.04l108.48-195.52a96 96 0 0 0-167.68-93.44l-243.2 436.48a49.6 49.6 0 0 1-82.88 5.76c-56.32-75.2-76.8-119.36-138.24-115.2A96 96 0 0 0 168.32 544a1159.68 1159.68 0 0 0 263.04 355.84c313.92 268.8 592.64-127.68 554.56-254.72z"/>
</svg>
